<?xml version="1.0" encoding="UTF-8"?>
<svg id="Layer_1" xmlns="http://www.w3.org/2000/svg" version="1.1" viewBox="0 0 2656 1062">
  <!-- Generator: Adobe Illustrator 29.4.0, SVG Export Plug-In . SVG Version: 2.1.0 Build 152)  -->
  <defs>
    <style>
      .st0 {
        fill: #dcdbdb;
      }

      .st1 {
        fill: #a41e21;
      }

      .st2 {
        fill: #c12026;
      }

      .st3 {
        fill: #fff;
      }

      .st4 {
        fill: #9a1c1f;
      }

      .st5 {
        fill: #cc2027;
      }

      .st6 {
        fill: #dddddb;
      }
    </style>
  </defs>
  <polygon class="st2" points="1314.75 175.87 1317.22 327.41 1168.79 414.65 1042.38 338.75 1314.75 175.87"/>
  <polygon class="st4" points="1043.12 487.62 1316.88 650.75 1316.75 697.87 1422.8 633.96 1422.8 567.16 1042.38 338.75 1043.12 487.62"/>
  <polygon class="st1" points="1043.5 690 1314.62 854.75 1314.62 705.5 1163.88 613.62 1043.5 690"/>
  <polygon class="st3" points="1468.65 623.13 1584.87 689.19 1316.75 854.75 1316.75 707.47 1468.65 623.13"/>
  <polygon class="st0" points="1468.65 419.26 1584.87 343.35 1584.87 689.19 1468.65 623.13 1468.65 419.26"/>
  <polygon class="st6" points="1415.43 388.74 1415.43 514.74 1317.22 458.39 1317.22 330.04 1415.43 388.74"/>
  <polygon class="st5" points="1043.5 542.5 1043.5 690 1163.88 613.62 1043.5 542.5"/>
  <polygon class="st3" points="1314.81 179.56 1584.87 343.35 1468.65 419.26 1317.22 330.04 1314.81 179.56"/>
</svg>