<?xml version="1.0" encoding="UTF-8"?>
<svg id="Layer_1" xmlns="http://www.w3.org/2000/svg" version="1.1" viewBox="0 0 820 1000">
  <!-- Generator: Adobe Illustrator 29.4.0, SVG Export Plug-In . SVG Version: 2.1.0 Build 152)  -->
  <defs>
    <style>
      .st0 {
        fill: #dcdbdb;
      }

      .st1 {
        fill: #a41e21;
      }

      .st2 {
        fill: #c12026;
      }

      .st3 {
        fill: #fff;
      }

      .st4 {
        fill: #9a1c1f;
      }

      .st5 {
        fill: #cc2027;
      }

      .st6 {
        fill: #dddddb;
      }
    </style>
  </defs>
  <polygon class="st2" points="411.73 6.1 415.26 226.25 198.11 350.04 13.17 238.99 411.73 6.1"/>
  <polygon class="st4" points="14.25 456.79 414.76 695.45 414.57 778.43 569.72 692.28 569.72 573.16 13.17 238.99 14.25 456.79"/>
  <polygon class="st1" points="14.81 752.87 414.57 993.9 414.57 778.43 190.92 641.13 14.81 752.87"/>
  <polygon class="st3" points="636.8 655.04 806.83 751.69 414.57 993.9 414.57 778.43 636.8 655.04"/>
  <polygon class="st0" points="636.8 356.78 806.83 245.72 806.83 751.69 636.8 655.04 636.8 356.78"/>
  <polygon class="st6" points="569.72 317.26 569.72 573.16 415.26 480.42 415.26 226.25 569.72 317.26"/>
  <polygon class="st5" points="14.81 537.08 14.81 752.87 190.92 641.13 14.81 537.08"/>
  <polygon class="st3" points="411.73 6.1 806.83 245.72 636.8 356.78 415.26 226.25 411.73 6.1"/>
</svg>